<mxfile host="app.diagrams.net" modified="2023-12-26T15:52:09.403Z" agent="Mozilla/5.0 (Windows NT 10.0; Win64; x64) AppleWebKit/537.36 (KHTML, like Gecko) Chrome/120.0.0.0 Safari/537.36" etag="MOZXXVU-KEkV8rXgK0Wu" version="22.1.11" type="github">
  <diagram name="Page-1" id="e56a1550-8fbb-45ad-956c-1786394a9013">
    <mxGraphModel dx="1750" dy="883" grid="1" gridSize="10" guides="1" tooltips="1" connect="1" arrows="1" fold="1" page="1" pageScale="1" pageWidth="1100" pageHeight="850" background="none" math="0" shadow="0">
      <root>
        <mxCell id="0" />
        <mxCell id="1" parent="0" />
        <mxCell id="ubanir7nK9sAYECxIfNs-1" value="Tb_menu" style="swimlane;html=1;fontStyle=0;childLayout=stackLayout;horizontal=1;startSize=26;fillColor=#e0e0e0;horizontalStack=0;resizeParent=1;resizeLast=0;collapsible=1;marginBottom=0;swimlaneFillColor=#ffffff;align=center;rounded=0;shadow=0;comic=0;labelBackgroundColor=none;strokeWidth=1;fontFamily=Verdana;fontSize=14" vertex="1" parent="1">
          <mxGeometry x="460" y="357" width="160" height="170" as="geometry" />
        </mxCell>
        <mxCell id="ubanir7nK9sAYECxIfNs-2" value="&lt;font color=&quot;#ff0000&quot;&gt;id_menu&lt;/font&gt;" style="shape=partialRectangle;top=0;left=0;right=0;bottom=1;html=1;align=left;verticalAlign=middle;fillColor=none;spacingLeft=34;spacingRight=4;whiteSpace=wrap;overflow=hidden;rotatable=0;points=[[0,0.5],[1,0.5]];portConstraint=eastwest;dropTarget=0;fontStyle=5;" vertex="1" parent="ubanir7nK9sAYECxIfNs-1">
          <mxGeometry y="26" width="160" height="30" as="geometry" />
        </mxCell>
        <mxCell id="ubanir7nK9sAYECxIfNs-3" value="&lt;font color=&quot;#ff0000&quot;&gt;PK&lt;/font&gt;" style="shape=partialRectangle;top=0;left=0;bottom=0;html=1;fillColor=none;align=left;verticalAlign=middle;spacingLeft=4;spacingRight=4;whiteSpace=wrap;overflow=hidden;rotatable=0;points=[];portConstraint=eastwest;part=1;" vertex="1" connectable="0" parent="ubanir7nK9sAYECxIfNs-2">
          <mxGeometry width="30" height="30" as="geometry" />
        </mxCell>
        <mxCell id="ubanir7nK9sAYECxIfNs-4" value="prix &lt;font color=&quot;#ff0000&quot;&gt;int&lt;/font&gt;" style="shape=partialRectangle;top=0;left=0;right=0;bottom=0;html=1;align=left;verticalAlign=top;fillColor=none;spacingLeft=34;spacingRight=4;whiteSpace=wrap;overflow=hidden;rotatable=0;points=[[0,0.5],[1,0.5]];portConstraint=eastwest;dropTarget=0;" vertex="1" parent="ubanir7nK9sAYECxIfNs-1">
          <mxGeometry y="56" width="160" height="26" as="geometry" />
        </mxCell>
        <mxCell id="ubanir7nK9sAYECxIfNs-5" value="" style="shape=partialRectangle;top=0;left=0;bottom=0;html=1;fillColor=none;align=left;verticalAlign=top;spacingLeft=4;spacingRight=4;whiteSpace=wrap;overflow=hidden;rotatable=0;points=[];portConstraint=eastwest;part=1;" vertex="1" connectable="0" parent="ubanir7nK9sAYECxIfNs-4">
          <mxGeometry width="30" height="26" as="geometry" />
        </mxCell>
        <mxCell id="ubanir7nK9sAYECxIfNs-6" value="&lt;font color=&quot;#ff0000&quot;&gt;# id_poivre&lt;/font&gt;" style="shape=partialRectangle;top=0;left=0;right=0;bottom=0;html=1;align=left;verticalAlign=top;fillColor=none;spacingLeft=34;spacingRight=4;whiteSpace=wrap;overflow=hidden;rotatable=0;points=[[0,0.5],[1,0.5]];portConstraint=eastwest;dropTarget=0;" vertex="1" parent="ubanir7nK9sAYECxIfNs-1">
          <mxGeometry y="82" width="160" height="26" as="geometry" />
        </mxCell>
        <mxCell id="ubanir7nK9sAYECxIfNs-7" value="&lt;font color=&quot;#ff0000&quot;&gt;FK&lt;/font&gt;" style="shape=partialRectangle;top=0;left=0;bottom=0;html=1;fillColor=none;align=left;verticalAlign=top;spacingLeft=4;spacingRight=4;whiteSpace=wrap;overflow=hidden;rotatable=0;points=[];portConstraint=eastwest;part=1;" vertex="1" connectable="0" parent="ubanir7nK9sAYECxIfNs-6">
          <mxGeometry width="30" height="26" as="geometry" />
        </mxCell>
        <mxCell id="ubanir7nK9sAYECxIfNs-8" value="&lt;font color=&quot;#ff0000&quot;&gt;# id_categorie&lt;/font&gt;" style="shape=partialRectangle;top=0;left=0;right=0;bottom=0;html=1;align=left;verticalAlign=top;fillColor=none;spacingLeft=34;spacingRight=4;whiteSpace=wrap;overflow=hidden;rotatable=0;points=[[0,0.5],[1,0.5]];portConstraint=eastwest;dropTarget=0;" vertex="1" parent="ubanir7nK9sAYECxIfNs-1">
          <mxGeometry y="108" width="160" height="62" as="geometry" />
        </mxCell>
        <mxCell id="ubanir7nK9sAYECxIfNs-9" value="&lt;font color=&quot;#ff0000&quot;&gt;FK&lt;/font&gt;" style="shape=partialRectangle;top=0;left=0;bottom=0;html=1;fillColor=none;align=left;verticalAlign=top;spacingLeft=4;spacingRight=4;whiteSpace=wrap;overflow=hidden;rotatable=0;points=[];portConstraint=eastwest;part=1;" vertex="1" connectable="0" parent="ubanir7nK9sAYECxIfNs-8">
          <mxGeometry width="30" height="62" as="geometry" />
        </mxCell>
        <mxCell id="ubanir7nK9sAYECxIfNs-10" value="Tb_carte_bistrot" style="swimlane;html=1;fontStyle=0;childLayout=stackLayout;horizontal=1;startSize=26;fillColor=#e0e0e0;horizontalStack=0;resizeParent=1;resizeLast=0;collapsible=1;marginBottom=0;swimlaneFillColor=#ffffff;align=center;rounded=0;shadow=0;comic=0;labelBackgroundColor=none;strokeWidth=1;fontFamily=Verdana;fontSize=14" vertex="1" parent="1">
          <mxGeometry x="782" y="650" width="188" height="164" as="geometry" />
        </mxCell>
        <mxCell id="ubanir7nK9sAYECxIfNs-11" value="&lt;font color=&quot;#ff0000&quot;&gt;id_carte_bistrot&lt;/font&gt;" style="shape=partialRectangle;top=0;left=0;right=0;bottom=1;html=1;align=left;verticalAlign=middle;fillColor=none;spacingLeft=34;spacingRight=4;whiteSpace=wrap;overflow=hidden;rotatable=0;points=[[0,0.5],[1,0.5]];portConstraint=eastwest;dropTarget=0;fontStyle=5;" vertex="1" parent="ubanir7nK9sAYECxIfNs-10">
          <mxGeometry y="26" width="188" height="30" as="geometry" />
        </mxCell>
        <mxCell id="ubanir7nK9sAYECxIfNs-12" value="&lt;font color=&quot;#ff0000&quot;&gt;PK&lt;/font&gt;" style="shape=partialRectangle;top=0;left=0;bottom=0;html=1;fillColor=none;align=left;verticalAlign=middle;spacingLeft=4;spacingRight=4;whiteSpace=wrap;overflow=hidden;rotatable=0;points=[];portConstraint=eastwest;part=1;" vertex="1" connectable="0" parent="ubanir7nK9sAYECxIfNs-11">
          <mxGeometry width="30" height="30" as="geometry" />
        </mxCell>
        <mxCell id="ubanir7nK9sAYECxIfNs-13" value="categorie &lt;font color=&quot;#ff0000&quot;&gt;varchar(200)&lt;/font&gt;" style="shape=partialRectangle;top=0;left=0;right=0;bottom=0;html=1;align=left;verticalAlign=top;fillColor=none;spacingLeft=34;spacingRight=4;whiteSpace=wrap;overflow=hidden;rotatable=0;points=[[0,0.5],[1,0.5]];portConstraint=eastwest;dropTarget=0;" vertex="1" parent="ubanir7nK9sAYECxIfNs-10">
          <mxGeometry y="56" width="188" height="26" as="geometry" />
        </mxCell>
        <mxCell id="ubanir7nK9sAYECxIfNs-14" value="" style="shape=partialRectangle;top=0;left=0;bottom=0;html=1;fillColor=none;align=left;verticalAlign=top;spacingLeft=4;spacingRight=4;whiteSpace=wrap;overflow=hidden;rotatable=0;points=[];portConstraint=eastwest;part=1;" vertex="1" connectable="0" parent="ubanir7nK9sAYECxIfNs-13">
          <mxGeometry width="30" height="26" as="geometry" />
        </mxCell>
        <mxCell id="ubanir7nK9sAYECxIfNs-15" value="prix &lt;font color=&quot;#ff0000&quot;&gt;int&lt;/font&gt;" style="shape=partialRectangle;top=0;left=0;right=0;bottom=0;html=1;align=left;verticalAlign=top;fillColor=none;spacingLeft=34;spacingRight=4;whiteSpace=wrap;overflow=hidden;rotatable=0;points=[[0,0.5],[1,0.5]];portConstraint=eastwest;dropTarget=0;" vertex="1" parent="ubanir7nK9sAYECxIfNs-10">
          <mxGeometry y="82" width="188" height="26" as="geometry" />
        </mxCell>
        <mxCell id="ubanir7nK9sAYECxIfNs-16" value="" style="shape=partialRectangle;top=0;left=0;bottom=0;html=1;fillColor=none;align=left;verticalAlign=top;spacingLeft=4;spacingRight=4;whiteSpace=wrap;overflow=hidden;rotatable=0;points=[];portConstraint=eastwest;part=1;" vertex="1" connectable="0" parent="ubanir7nK9sAYECxIfNs-15">
          <mxGeometry width="30" height="26" as="geometry" />
        </mxCell>
        <mxCell id="ubanir7nK9sAYECxIfNs-17" value="description &lt;font color=&quot;#ff0000&quot;&gt;varchar(200)&lt;/font&gt;" style="shape=partialRectangle;top=0;left=0;right=0;bottom=0;html=1;align=left;verticalAlign=top;fillColor=none;spacingLeft=34;spacingRight=4;whiteSpace=wrap;overflow=hidden;rotatable=0;points=[[0,0.5],[1,0.5]];portConstraint=eastwest;dropTarget=0;" vertex="1" parent="ubanir7nK9sAYECxIfNs-10">
          <mxGeometry y="108" width="188" height="26" as="geometry" />
        </mxCell>
        <mxCell id="ubanir7nK9sAYECxIfNs-18" value="" style="shape=partialRectangle;top=0;left=0;bottom=0;html=1;fillColor=none;align=left;verticalAlign=top;spacingLeft=4;spacingRight=4;whiteSpace=wrap;overflow=hidden;rotatable=0;points=[];portConstraint=eastwest;part=1;" vertex="1" connectable="0" parent="ubanir7nK9sAYECxIfNs-17">
          <mxGeometry width="30" height="26" as="geometry" />
        </mxCell>
        <mxCell id="ubanir7nK9sAYECxIfNs-21" value="&lt;font color=&quot;#ff0000&quot;&gt;# id_categorie&lt;/font&gt;" style="shape=partialRectangle;top=0;left=0;right=0;bottom=0;html=1;align=left;verticalAlign=top;fillColor=none;spacingLeft=34;spacingRight=4;whiteSpace=wrap;overflow=hidden;rotatable=0;points=[[0,0.5],[1,0.5]];portConstraint=eastwest;dropTarget=0;" vertex="1" parent="ubanir7nK9sAYECxIfNs-10">
          <mxGeometry y="134" width="188" height="30" as="geometry" />
        </mxCell>
        <mxCell id="ubanir7nK9sAYECxIfNs-22" value="&lt;font color=&quot;#ff0000&quot;&gt;FK&lt;/font&gt;" style="shape=partialRectangle;top=0;left=0;bottom=0;html=1;fillColor=none;align=left;verticalAlign=top;spacingLeft=4;spacingRight=4;whiteSpace=wrap;overflow=hidden;rotatable=0;points=[];portConstraint=eastwest;part=1;" vertex="1" connectable="0" parent="ubanir7nK9sAYECxIfNs-21">
          <mxGeometry width="30" height="30" as="geometry" />
        </mxCell>
        <mxCell id="ubanir7nK9sAYECxIfNs-23" value="Tb_carte_spe_bistrot" style="swimlane;html=1;fontStyle=0;childLayout=stackLayout;horizontal=1;startSize=26;fillColor=#e0e0e0;horizontalStack=0;resizeParent=1;resizeLast=0;collapsible=1;marginBottom=0;swimlaneFillColor=#ffffff;align=center;rounded=0;shadow=0;comic=0;labelBackgroundColor=none;strokeWidth=1;fontFamily=Verdana;fontSize=14" vertex="1" parent="1">
          <mxGeometry x="780" y="40" width="200" height="164" as="geometry" />
        </mxCell>
        <mxCell id="ubanir7nK9sAYECxIfNs-24" value="&lt;font color=&quot;#ff0000&quot;&gt;id_carte_bistrot&lt;/font&gt;" style="shape=partialRectangle;top=0;left=0;right=0;bottom=1;html=1;align=left;verticalAlign=middle;fillColor=none;spacingLeft=34;spacingRight=4;whiteSpace=wrap;overflow=hidden;rotatable=0;points=[[0,0.5],[1,0.5]];portConstraint=eastwest;dropTarget=0;fontStyle=5;" vertex="1" parent="ubanir7nK9sAYECxIfNs-23">
          <mxGeometry y="26" width="200" height="30" as="geometry" />
        </mxCell>
        <mxCell id="ubanir7nK9sAYECxIfNs-25" value="&lt;font color=&quot;#ff0000&quot;&gt;PK&lt;/font&gt;" style="shape=partialRectangle;top=0;left=0;bottom=0;html=1;fillColor=none;align=left;verticalAlign=middle;spacingLeft=4;spacingRight=4;whiteSpace=wrap;overflow=hidden;rotatable=0;points=[];portConstraint=eastwest;part=1;" vertex="1" connectable="0" parent="ubanir7nK9sAYECxIfNs-24">
          <mxGeometry width="30" height="30" as="geometry" />
        </mxCell>
        <mxCell id="ubanir7nK9sAYECxIfNs-26" value="categorie &lt;font color=&quot;#ff0000&quot;&gt;varchar(200)&lt;/font&gt;" style="shape=partialRectangle;top=0;left=0;right=0;bottom=0;html=1;align=left;verticalAlign=top;fillColor=none;spacingLeft=34;spacingRight=4;whiteSpace=wrap;overflow=hidden;rotatable=0;points=[[0,0.5],[1,0.5]];portConstraint=eastwest;dropTarget=0;" vertex="1" parent="ubanir7nK9sAYECxIfNs-23">
          <mxGeometry y="56" width="200" height="26" as="geometry" />
        </mxCell>
        <mxCell id="ubanir7nK9sAYECxIfNs-27" value="" style="shape=partialRectangle;top=0;left=0;bottom=0;html=1;fillColor=none;align=left;verticalAlign=top;spacingLeft=4;spacingRight=4;whiteSpace=wrap;overflow=hidden;rotatable=0;points=[];portConstraint=eastwest;part=1;" vertex="1" connectable="0" parent="ubanir7nK9sAYECxIfNs-26">
          <mxGeometry width="30" height="26" as="geometry" />
        </mxCell>
        <mxCell id="ubanir7nK9sAYECxIfNs-28" value="prix &lt;font color=&quot;#ff0000&quot;&gt;int&lt;/font&gt;" style="shape=partialRectangle;top=0;left=0;right=0;bottom=0;html=1;align=left;verticalAlign=top;fillColor=none;spacingLeft=34;spacingRight=4;whiteSpace=wrap;overflow=hidden;rotatable=0;points=[[0,0.5],[1,0.5]];portConstraint=eastwest;dropTarget=0;" vertex="1" parent="ubanir7nK9sAYECxIfNs-23">
          <mxGeometry y="82" width="200" height="26" as="geometry" />
        </mxCell>
        <mxCell id="ubanir7nK9sAYECxIfNs-29" value="" style="shape=partialRectangle;top=0;left=0;bottom=0;html=1;fillColor=none;align=left;verticalAlign=top;spacingLeft=4;spacingRight=4;whiteSpace=wrap;overflow=hidden;rotatable=0;points=[];portConstraint=eastwest;part=1;" vertex="1" connectable="0" parent="ubanir7nK9sAYECxIfNs-28">
          <mxGeometry width="30" height="26" as="geometry" />
        </mxCell>
        <mxCell id="ubanir7nK9sAYECxIfNs-30" value="description &lt;font color=&quot;#ff0000&quot;&gt;varchar(200)&lt;/font&gt;" style="shape=partialRectangle;top=0;left=0;right=0;bottom=0;html=1;align=left;verticalAlign=top;fillColor=none;spacingLeft=34;spacingRight=4;whiteSpace=wrap;overflow=hidden;rotatable=0;points=[[0,0.5],[1,0.5]];portConstraint=eastwest;dropTarget=0;" vertex="1" parent="ubanir7nK9sAYECxIfNs-23">
          <mxGeometry y="108" width="200" height="26" as="geometry" />
        </mxCell>
        <mxCell id="ubanir7nK9sAYECxIfNs-31" value="" style="shape=partialRectangle;top=0;left=0;bottom=0;html=1;fillColor=none;align=left;verticalAlign=top;spacingLeft=4;spacingRight=4;whiteSpace=wrap;overflow=hidden;rotatable=0;points=[];portConstraint=eastwest;part=1;" vertex="1" connectable="0" parent="ubanir7nK9sAYECxIfNs-30">
          <mxGeometry width="30" height="26" as="geometry" />
        </mxCell>
        <mxCell id="ubanir7nK9sAYECxIfNs-34" value="&lt;font color=&quot;#ff0000&quot;&gt;# id_categorie&lt;/font&gt;" style="shape=partialRectangle;top=0;left=0;right=0;bottom=0;html=1;align=left;verticalAlign=top;fillColor=none;spacingLeft=34;spacingRight=4;whiteSpace=wrap;overflow=hidden;rotatable=0;points=[[0,0.5],[1,0.5]];portConstraint=eastwest;dropTarget=0;" vertex="1" parent="ubanir7nK9sAYECxIfNs-23">
          <mxGeometry y="134" width="200" height="30" as="geometry" />
        </mxCell>
        <mxCell id="ubanir7nK9sAYECxIfNs-35" value="&lt;font color=&quot;#ff0000&quot;&gt;FK&lt;/font&gt;" style="shape=partialRectangle;top=0;left=0;bottom=0;html=1;fillColor=none;align=left;verticalAlign=top;spacingLeft=4;spacingRight=4;whiteSpace=wrap;overflow=hidden;rotatable=0;points=[];portConstraint=eastwest;part=1;" vertex="1" connectable="0" parent="ubanir7nK9sAYECxIfNs-34">
          <mxGeometry width="30" height="30" as="geometry" />
        </mxCell>
        <mxCell id="ubanir7nK9sAYECxIfNs-36" value="" style="shape=partialRectangle;top=0;left=0;right=0;bottom=0;html=1;align=left;verticalAlign=top;fillColor=none;spacingLeft=34;spacingRight=4;whiteSpace=wrap;overflow=hidden;rotatable=0;points=[[0,0.5],[1,0.5]];portConstraint=eastwest;dropTarget=0;" vertex="1" parent="ubanir7nK9sAYECxIfNs-23">
          <mxGeometry y="164" width="200" as="geometry" />
        </mxCell>
        <mxCell id="ubanir7nK9sAYECxIfNs-37" value="" style="shape=partialRectangle;top=0;left=0;bottom=0;html=1;fillColor=none;align=left;verticalAlign=top;spacingLeft=4;spacingRight=4;whiteSpace=wrap;overflow=hidden;rotatable=0;points=[];portConstraint=eastwest;part=1;" vertex="1" connectable="0" parent="ubanir7nK9sAYECxIfNs-36">
          <mxGeometry width="30" as="geometry" />
        </mxCell>
        <mxCell id="ubanir7nK9sAYECxIfNs-38" value="Tb_categorie" style="swimlane;html=1;fontStyle=0;childLayout=stackLayout;horizontal=1;startSize=26;fillColor=#e0e0e0;horizontalStack=0;resizeParent=1;resizeLast=0;collapsible=1;marginBottom=0;swimlaneFillColor=#ffffff;align=center;rounded=0;shadow=0;comic=0;labelBackgroundColor=none;strokeWidth=1;fontFamily=Verdana;fontSize=14" vertex="1" parent="1">
          <mxGeometry x="780" y="360" width="160" height="130" as="geometry" />
        </mxCell>
        <mxCell id="ubanir7nK9sAYECxIfNs-39" value="&lt;font color=&quot;#ff0000&quot;&gt;id_categorie&lt;/font&gt;" style="shape=partialRectangle;top=0;left=0;right=0;bottom=1;html=1;align=left;verticalAlign=middle;fillColor=none;spacingLeft=34;spacingRight=4;whiteSpace=wrap;overflow=hidden;rotatable=0;points=[[0,0.5],[1,0.5]];portConstraint=eastwest;dropTarget=0;fontStyle=5;" vertex="1" parent="ubanir7nK9sAYECxIfNs-38">
          <mxGeometry y="26" width="160" height="30" as="geometry" />
        </mxCell>
        <mxCell id="ubanir7nK9sAYECxIfNs-40" value="&lt;font color=&quot;#ff0000&quot;&gt;PK&lt;/font&gt;" style="shape=partialRectangle;top=0;left=0;bottom=0;html=1;fillColor=none;align=left;verticalAlign=middle;spacingLeft=4;spacingRight=4;whiteSpace=wrap;overflow=hidden;rotatable=0;points=[];portConstraint=eastwest;part=1;" vertex="1" connectable="0" parent="ubanir7nK9sAYECxIfNs-39">
          <mxGeometry width="30" height="30" as="geometry" />
        </mxCell>
        <mxCell id="ubanir7nK9sAYECxIfNs-41" value="&lt;font color=&quot;#ff0000&quot;&gt;# id_menu&lt;br&gt;# id_carte_bistrot&lt;br&gt;# id_carte_spe_bistrot&lt;br&gt;&lt;/font&gt;" style="shape=partialRectangle;top=0;left=0;right=0;bottom=0;html=1;align=left;verticalAlign=top;fillColor=none;spacingLeft=34;spacingRight=4;whiteSpace=wrap;overflow=hidden;rotatable=0;points=[[0,0.5],[1,0.5]];portConstraint=eastwest;dropTarget=0;" vertex="1" parent="ubanir7nK9sAYECxIfNs-38">
          <mxGeometry y="56" width="160" height="74" as="geometry" />
        </mxCell>
        <mxCell id="ubanir7nK9sAYECxIfNs-42" value="&lt;font color=&quot;#ff0000&quot;&gt;FK&lt;br&gt;FK&lt;br&gt;FK&lt;/font&gt;" style="shape=partialRectangle;top=0;left=0;bottom=0;html=1;fillColor=none;align=left;verticalAlign=top;spacingLeft=4;spacingRight=4;whiteSpace=wrap;overflow=hidden;rotatable=0;points=[];portConstraint=eastwest;part=1;" vertex="1" connectable="0" parent="ubanir7nK9sAYECxIfNs-41">
          <mxGeometry width="30" height="74" as="geometry" />
        </mxCell>
        <mxCell id="ubanir7nK9sAYECxIfNs-43" value="Tb_poivre" style="swimlane;html=1;fontStyle=0;childLayout=stackLayout;horizontal=1;startSize=26;fillColor=#e0e0e0;horizontalStack=0;resizeParent=1;resizeLast=0;collapsible=1;marginBottom=0;swimlaneFillColor=#ffffff;align=center;rounded=0;shadow=0;comic=0;labelBackgroundColor=none;strokeWidth=1;fontFamily=Verdana;fontSize=14" vertex="1" parent="1">
          <mxGeometry x="50" y="357" width="240" height="186" as="geometry" />
        </mxCell>
        <mxCell id="ubanir7nK9sAYECxIfNs-44" value="&lt;font color=&quot;#ff0000&quot;&gt;id_poivre&lt;/font&gt;" style="shape=partialRectangle;top=0;left=0;right=0;bottom=1;html=1;align=left;verticalAlign=middle;fillColor=none;spacingLeft=34;spacingRight=4;whiteSpace=wrap;overflow=hidden;rotatable=0;points=[[0,0.5],[1,0.5]];portConstraint=eastwest;dropTarget=0;fontStyle=5;" vertex="1" parent="ubanir7nK9sAYECxIfNs-43">
          <mxGeometry y="26" width="240" height="30" as="geometry" />
        </mxCell>
        <mxCell id="ubanir7nK9sAYECxIfNs-45" value="&lt;font color=&quot;#ff0000&quot;&gt;PK&lt;/font&gt;" style="shape=partialRectangle;top=0;left=0;bottom=0;html=1;fillColor=none;align=left;verticalAlign=middle;spacingLeft=4;spacingRight=4;whiteSpace=wrap;overflow=hidden;rotatable=0;points=[];portConstraint=eastwest;part=1;" vertex="1" connectable="0" parent="ubanir7nK9sAYECxIfNs-44">
          <mxGeometry width="30" height="30" as="geometry" />
        </mxCell>
        <mxCell id="ubanir7nK9sAYECxIfNs-46" value="type_poivre &lt;font color=&quot;#ff0000&quot;&gt;varchar(200)&lt;/font&gt;" style="shape=partialRectangle;top=0;left=0;right=0;bottom=0;html=1;align=left;verticalAlign=top;fillColor=none;spacingLeft=34;spacingRight=4;whiteSpace=wrap;overflow=hidden;rotatable=0;points=[[0,0.5],[1,0.5]];portConstraint=eastwest;dropTarget=0;" vertex="1" parent="ubanir7nK9sAYECxIfNs-43">
          <mxGeometry y="56" width="240" height="26" as="geometry" />
        </mxCell>
        <mxCell id="ubanir7nK9sAYECxIfNs-47" value="" style="shape=partialRectangle;top=0;left=0;bottom=0;html=1;fillColor=none;align=left;verticalAlign=top;spacingLeft=4;spacingRight=4;whiteSpace=wrap;overflow=hidden;rotatable=0;points=[];portConstraint=eastwest;part=1;" vertex="1" connectable="0" parent="ubanir7nK9sAYECxIfNs-46">
          <mxGeometry width="30" height="26" as="geometry" />
        </mxCell>
        <mxCell id="ubanir7nK9sAYECxIfNs-48" value="description_poivre &lt;font color=&quot;#ff0000&quot;&gt;varchar(200)&lt;/font&gt;" style="shape=partialRectangle;top=0;left=0;right=0;bottom=0;html=1;align=left;verticalAlign=top;fillColor=none;spacingLeft=34;spacingRight=4;whiteSpace=wrap;overflow=hidden;rotatable=0;points=[[0,0.5],[1,0.5]];portConstraint=eastwest;dropTarget=0;" vertex="1" parent="ubanir7nK9sAYECxIfNs-43">
          <mxGeometry y="82" width="240" height="26" as="geometry" />
        </mxCell>
        <mxCell id="ubanir7nK9sAYECxIfNs-49" value="" style="shape=partialRectangle;top=0;left=0;bottom=0;html=1;fillColor=none;align=left;verticalAlign=top;spacingLeft=4;spacingRight=4;whiteSpace=wrap;overflow=hidden;rotatable=0;points=[];portConstraint=eastwest;part=1;" vertex="1" connectable="0" parent="ubanir7nK9sAYECxIfNs-48">
          <mxGeometry width="30" height="26" as="geometry" />
        </mxCell>
        <mxCell id="ubanir7nK9sAYECxIfNs-50" value="prix_poivre &lt;font color=&quot;#ff0000&quot;&gt;int&lt;/font&gt;" style="shape=partialRectangle;top=0;left=0;right=0;bottom=0;html=1;align=left;verticalAlign=top;fillColor=none;spacingLeft=34;spacingRight=4;whiteSpace=wrap;overflow=hidden;rotatable=0;points=[[0,0.5],[1,0.5]];portConstraint=eastwest;dropTarget=0;" vertex="1" parent="ubanir7nK9sAYECxIfNs-43">
          <mxGeometry y="108" width="240" height="26" as="geometry" />
        </mxCell>
        <mxCell id="ubanir7nK9sAYECxIfNs-51" value="" style="shape=partialRectangle;top=0;left=0;bottom=0;html=1;fillColor=none;align=left;verticalAlign=top;spacingLeft=4;spacingRight=4;whiteSpace=wrap;overflow=hidden;rotatable=0;points=[];portConstraint=eastwest;part=1;" vertex="1" connectable="0" parent="ubanir7nK9sAYECxIfNs-50">
          <mxGeometry width="30" height="26" as="geometry" />
        </mxCell>
        <mxCell id="ubanir7nK9sAYECxIfNs-52" value="&lt;font color=&quot;#ff0000&quot;&gt;# id_menu&lt;/font&gt;" style="shape=partialRectangle;top=0;left=0;right=0;bottom=0;html=1;align=left;verticalAlign=top;fillColor=none;spacingLeft=34;spacingRight=4;whiteSpace=wrap;overflow=hidden;rotatable=0;points=[[0,0.5],[1,0.5]];portConstraint=eastwest;dropTarget=0;strokeColor=#FF0000;" vertex="1" parent="ubanir7nK9sAYECxIfNs-43">
          <mxGeometry y="134" width="240" height="26" as="geometry" />
        </mxCell>
        <mxCell id="ubanir7nK9sAYECxIfNs-53" value="&lt;font color=&quot;#ff0000&quot;&gt;FK&lt;/font&gt;" style="shape=partialRectangle;top=0;left=0;bottom=0;html=1;fillColor=none;align=left;verticalAlign=top;spacingLeft=4;spacingRight=4;whiteSpace=wrap;overflow=hidden;rotatable=0;points=[];portConstraint=eastwest;part=1;" vertex="1" connectable="0" parent="ubanir7nK9sAYECxIfNs-52">
          <mxGeometry width="30" height="26" as="geometry" />
        </mxCell>
        <mxCell id="ubanir7nK9sAYECxIfNs-54" value="" style="shape=partialRectangle;top=0;left=0;right=0;bottom=0;html=1;align=left;verticalAlign=top;fillColor=none;spacingLeft=34;spacingRight=4;whiteSpace=wrap;overflow=hidden;rotatable=0;points=[[0,0.5],[1,0.5]];portConstraint=eastwest;dropTarget=0;" vertex="1" parent="ubanir7nK9sAYECxIfNs-43">
          <mxGeometry y="160" width="240" height="26" as="geometry" />
        </mxCell>
        <mxCell id="ubanir7nK9sAYECxIfNs-55" value="" style="shape=partialRectangle;top=0;left=0;bottom=0;html=1;fillColor=none;align=left;verticalAlign=top;spacingLeft=4;spacingRight=4;whiteSpace=wrap;overflow=hidden;rotatable=0;points=[];portConstraint=eastwest;part=1;" vertex="1" connectable="0" parent="ubanir7nK9sAYECxIfNs-54">
          <mxGeometry width="30" height="26" as="geometry" />
        </mxCell>
        <mxCell id="ubanir7nK9sAYECxIfNs-56" value="Tb_client" style="swimlane;html=1;fontStyle=0;childLayout=stackLayout;horizontal=1;startSize=26;fillColor=#e0e0e0;horizontalStack=0;resizeParent=1;resizeLast=0;collapsible=1;marginBottom=0;swimlaneFillColor=#ffffff;align=center;rounded=0;shadow=0;comic=0;labelBackgroundColor=none;strokeWidth=1;fontFamily=Verdana;fontSize=14" vertex="1" parent="1">
          <mxGeometry x="40" y="878" width="240" height="186" as="geometry" />
        </mxCell>
        <mxCell id="ubanir7nK9sAYECxIfNs-57" value="&lt;font color=&quot;#ff0000&quot;&gt;id_client&lt;/font&gt;" style="shape=partialRectangle;top=0;left=0;right=0;bottom=1;html=1;align=left;verticalAlign=middle;fillColor=none;spacingLeft=34;spacingRight=4;whiteSpace=wrap;overflow=hidden;rotatable=0;points=[[0,0.5],[1,0.5]];portConstraint=eastwest;dropTarget=0;fontStyle=5;" vertex="1" parent="ubanir7nK9sAYECxIfNs-56">
          <mxGeometry y="26" width="240" height="30" as="geometry" />
        </mxCell>
        <mxCell id="ubanir7nK9sAYECxIfNs-58" value="&lt;font color=&quot;#ff0000&quot;&gt;PK&lt;/font&gt;" style="shape=partialRectangle;top=0;left=0;bottom=0;html=1;fillColor=none;align=left;verticalAlign=middle;spacingLeft=4;spacingRight=4;whiteSpace=wrap;overflow=hidden;rotatable=0;points=[];portConstraint=eastwest;part=1;" vertex="1" connectable="0" parent="ubanir7nK9sAYECxIfNs-57">
          <mxGeometry width="30" height="30" as="geometry" />
        </mxCell>
        <mxCell id="ubanir7nK9sAYECxIfNs-59" value="prenom_client &lt;font color=&quot;#ff0000&quot;&gt;varchar(200)&lt;/font&gt;" style="shape=partialRectangle;top=0;left=0;right=0;bottom=0;html=1;align=left;verticalAlign=top;fillColor=none;spacingLeft=34;spacingRight=4;whiteSpace=wrap;overflow=hidden;rotatable=0;points=[[0,0.5],[1,0.5]];portConstraint=eastwest;dropTarget=0;" vertex="1" parent="ubanir7nK9sAYECxIfNs-56">
          <mxGeometry y="56" width="240" height="26" as="geometry" />
        </mxCell>
        <mxCell id="ubanir7nK9sAYECxIfNs-60" value="" style="shape=partialRectangle;top=0;left=0;bottom=0;html=1;fillColor=none;align=left;verticalAlign=top;spacingLeft=4;spacingRight=4;whiteSpace=wrap;overflow=hidden;rotatable=0;points=[];portConstraint=eastwest;part=1;" vertex="1" connectable="0" parent="ubanir7nK9sAYECxIfNs-59">
          <mxGeometry width="30" height="26" as="geometry" />
        </mxCell>
        <mxCell id="ubanir7nK9sAYECxIfNs-61" value="nom_client &lt;font color=&quot;#ff0000&quot;&gt;varchar(200)&lt;/font&gt;" style="shape=partialRectangle;top=0;left=0;right=0;bottom=0;html=1;align=left;verticalAlign=top;fillColor=none;spacingLeft=34;spacingRight=4;whiteSpace=wrap;overflow=hidden;rotatable=0;points=[[0,0.5],[1,0.5]];portConstraint=eastwest;dropTarget=0;" vertex="1" parent="ubanir7nK9sAYECxIfNs-56">
          <mxGeometry y="82" width="240" height="26" as="geometry" />
        </mxCell>
        <mxCell id="ubanir7nK9sAYECxIfNs-62" value="" style="shape=partialRectangle;top=0;left=0;bottom=0;html=1;fillColor=none;align=left;verticalAlign=top;spacingLeft=4;spacingRight=4;whiteSpace=wrap;overflow=hidden;rotatable=0;points=[];portConstraint=eastwest;part=1;" vertex="1" connectable="0" parent="ubanir7nK9sAYECxIfNs-61">
          <mxGeometry width="30" height="26" as="geometry" />
        </mxCell>
        <mxCell id="ubanir7nK9sAYECxIfNs-63" value="telephone_client &lt;font color=&quot;#ff0000&quot;&gt;int&lt;/font&gt;" style="shape=partialRectangle;top=0;left=0;right=0;bottom=0;html=1;align=left;verticalAlign=top;fillColor=none;spacingLeft=34;spacingRight=4;whiteSpace=wrap;overflow=hidden;rotatable=0;points=[[0,0.5],[1,0.5]];portConstraint=eastwest;dropTarget=0;" vertex="1" parent="ubanir7nK9sAYECxIfNs-56">
          <mxGeometry y="108" width="240" height="26" as="geometry" />
        </mxCell>
        <mxCell id="ubanir7nK9sAYECxIfNs-64" value="" style="shape=partialRectangle;top=0;left=0;bottom=0;html=1;fillColor=none;align=left;verticalAlign=top;spacingLeft=4;spacingRight=4;whiteSpace=wrap;overflow=hidden;rotatable=0;points=[];portConstraint=eastwest;part=1;" vertex="1" connectable="0" parent="ubanir7nK9sAYECxIfNs-63">
          <mxGeometry width="30" height="26" as="geometry" />
        </mxCell>
        <mxCell id="ubanir7nK9sAYECxIfNs-65" value="email_client &lt;font color=&quot;#ff0000&quot;&gt;varchar(200)&lt;/font&gt;" style="shape=partialRectangle;top=0;left=0;right=0;bottom=0;html=1;align=left;verticalAlign=top;fillColor=none;spacingLeft=34;spacingRight=4;whiteSpace=wrap;overflow=hidden;rotatable=0;points=[[0,0.5],[1,0.5]];portConstraint=eastwest;dropTarget=0;" vertex="1" parent="ubanir7nK9sAYECxIfNs-56">
          <mxGeometry y="134" width="240" height="26" as="geometry" />
        </mxCell>
        <mxCell id="ubanir7nK9sAYECxIfNs-66" value="" style="shape=partialRectangle;top=0;left=0;bottom=0;html=1;fillColor=none;align=left;verticalAlign=top;spacingLeft=4;spacingRight=4;whiteSpace=wrap;overflow=hidden;rotatable=0;points=[];portConstraint=eastwest;part=1;" vertex="1" connectable="0" parent="ubanir7nK9sAYECxIfNs-65">
          <mxGeometry width="30" height="26" as="geometry" />
        </mxCell>
        <mxCell id="ubanir7nK9sAYECxIfNs-67" value="&lt;font color=&quot;#ff0000&quot;&gt;# id_reservation&lt;/font&gt;" style="shape=partialRectangle;top=0;left=0;right=0;bottom=0;html=1;align=left;verticalAlign=top;fillColor=none;spacingLeft=34;spacingRight=4;whiteSpace=wrap;overflow=hidden;rotatable=0;points=[[0,0.5],[1,0.5]];portConstraint=eastwest;dropTarget=0;" vertex="1" parent="ubanir7nK9sAYECxIfNs-56">
          <mxGeometry y="160" width="240" height="26" as="geometry" />
        </mxCell>
        <mxCell id="ubanir7nK9sAYECxIfNs-68" value="&lt;font color=&quot;#ff0000&quot;&gt;FK&lt;/font&gt;" style="shape=partialRectangle;top=0;left=0;bottom=0;html=1;fillColor=none;align=left;verticalAlign=top;spacingLeft=4;spacingRight=4;whiteSpace=wrap;overflow=hidden;rotatable=0;points=[];portConstraint=eastwest;part=1;" vertex="1" connectable="0" parent="ubanir7nK9sAYECxIfNs-67">
          <mxGeometry width="30" height="26" as="geometry" />
        </mxCell>
        <mxCell id="ubanir7nK9sAYECxIfNs-69" value="Tb_reservation" style="swimlane;html=1;fontStyle=0;childLayout=stackLayout;horizontal=1;startSize=26;fillColor=#e0e0e0;horizontalStack=0;resizeParent=1;resizeLast=0;collapsible=1;marginBottom=0;swimlaneFillColor=#ffffff;align=center;rounded=0;shadow=0;comic=0;labelBackgroundColor=none;strokeWidth=1;fontFamily=Verdana;fontSize=14" vertex="1" parent="1">
          <mxGeometry x="440" y="878" width="240" height="134" as="geometry" />
        </mxCell>
        <mxCell id="ubanir7nK9sAYECxIfNs-70" value="&lt;font color=&quot;#ff0000&quot;&gt;id_reservation&lt;/font&gt;" style="shape=partialRectangle;top=0;left=0;right=0;bottom=1;html=1;align=left;verticalAlign=middle;fillColor=none;spacingLeft=34;spacingRight=4;whiteSpace=wrap;overflow=hidden;rotatable=0;points=[[0,0.5],[1,0.5]];portConstraint=eastwest;dropTarget=0;fontStyle=5;" vertex="1" parent="ubanir7nK9sAYECxIfNs-69">
          <mxGeometry y="26" width="240" height="30" as="geometry" />
        </mxCell>
        <mxCell id="ubanir7nK9sAYECxIfNs-71" value="&lt;font color=&quot;#ff0000&quot;&gt;PK&lt;/font&gt;" style="shape=partialRectangle;top=0;left=0;bottom=0;html=1;fillColor=none;align=left;verticalAlign=middle;spacingLeft=4;spacingRight=4;whiteSpace=wrap;overflow=hidden;rotatable=0;points=[];portConstraint=eastwest;part=1;" vertex="1" connectable="0" parent="ubanir7nK9sAYECxIfNs-70">
          <mxGeometry width="30" height="30" as="geometry" />
        </mxCell>
        <mxCell id="ubanir7nK9sAYECxIfNs-72" value="date_reservation &lt;font color=&quot;#ff0000&quot;&gt;datetime&lt;/font&gt;" style="shape=partialRectangle;top=0;left=0;right=0;bottom=0;html=1;align=left;verticalAlign=top;fillColor=none;spacingLeft=34;spacingRight=4;whiteSpace=wrap;overflow=hidden;rotatable=0;points=[[0,0.5],[1,0.5]];portConstraint=eastwest;dropTarget=0;" vertex="1" parent="ubanir7nK9sAYECxIfNs-69">
          <mxGeometry y="56" width="240" height="26" as="geometry" />
        </mxCell>
        <mxCell id="ubanir7nK9sAYECxIfNs-73" value="" style="shape=partialRectangle;top=0;left=0;bottom=0;html=1;fillColor=none;align=left;verticalAlign=top;spacingLeft=4;spacingRight=4;whiteSpace=wrap;overflow=hidden;rotatable=0;points=[];portConstraint=eastwest;part=1;" vertex="1" connectable="0" parent="ubanir7nK9sAYECxIfNs-72">
          <mxGeometry width="30" height="26" as="geometry" />
        </mxCell>
        <mxCell id="ubanir7nK9sAYECxIfNs-74" value="nb_clients &lt;font color=&quot;#ff0000&quot;&gt;int&lt;/font&gt;" style="shape=partialRectangle;top=0;left=0;right=0;bottom=0;html=1;align=left;verticalAlign=top;fillColor=none;spacingLeft=34;spacingRight=4;whiteSpace=wrap;overflow=hidden;rotatable=0;points=[[0,0.5],[1,0.5]];portConstraint=eastwest;dropTarget=0;" vertex="1" parent="ubanir7nK9sAYECxIfNs-69">
          <mxGeometry y="82" width="240" height="26" as="geometry" />
        </mxCell>
        <mxCell id="ubanir7nK9sAYECxIfNs-75" value="" style="shape=partialRectangle;top=0;left=0;bottom=0;html=1;fillColor=none;align=left;verticalAlign=top;spacingLeft=4;spacingRight=4;whiteSpace=wrap;overflow=hidden;rotatable=0;points=[];portConstraint=eastwest;part=1;" vertex="1" connectable="0" parent="ubanir7nK9sAYECxIfNs-74">
          <mxGeometry width="30" height="26" as="geometry" />
        </mxCell>
        <mxCell id="ubanir7nK9sAYECxIfNs-76" value="&lt;font color=&quot;#ff0000&quot;&gt;# id_client&lt;/font&gt;" style="shape=partialRectangle;top=0;left=0;right=0;bottom=0;html=1;align=left;verticalAlign=top;fillColor=none;spacingLeft=34;spacingRight=4;whiteSpace=wrap;overflow=hidden;rotatable=0;points=[[0,0.5],[1,0.5]];portConstraint=eastwest;dropTarget=0;" vertex="1" parent="ubanir7nK9sAYECxIfNs-69">
          <mxGeometry y="108" width="240" height="26" as="geometry" />
        </mxCell>
        <mxCell id="ubanir7nK9sAYECxIfNs-77" value="&lt;font color=&quot;#ff0000&quot;&gt;FK&lt;/font&gt;" style="shape=partialRectangle;top=0;left=0;bottom=0;html=1;fillColor=none;align=left;verticalAlign=top;spacingLeft=4;spacingRight=4;whiteSpace=wrap;overflow=hidden;rotatable=0;points=[];portConstraint=eastwest;part=1;" vertex="1" connectable="0" parent="ubanir7nK9sAYECxIfNs-76">
          <mxGeometry width="30" height="26" as="geometry" />
        </mxCell>
        <mxCell id="ubanir7nK9sAYECxIfNs-78" value="Tb_team" style="swimlane;html=1;fontStyle=0;childLayout=stackLayout;horizontal=1;startSize=26;fillColor=#e0e0e0;horizontalStack=0;resizeParent=1;resizeLast=0;collapsible=1;marginBottom=0;swimlaneFillColor=#ffffff;align=center;rounded=0;shadow=0;comic=0;labelBackgroundColor=none;strokeWidth=1;fontFamily=Verdana;fontSize=14" vertex="1" parent="1">
          <mxGeometry x="810" y="1000" width="250" height="160" as="geometry" />
        </mxCell>
        <mxCell id="ubanir7nK9sAYECxIfNs-79" value="&lt;font color=&quot;#ff0000&quot;&gt;id_team&lt;/font&gt;" style="shape=partialRectangle;top=0;left=0;right=0;bottom=1;html=1;align=left;verticalAlign=middle;fillColor=none;spacingLeft=34;spacingRight=4;whiteSpace=wrap;overflow=hidden;rotatable=0;points=[[0,0.5],[1,0.5]];portConstraint=eastwest;dropTarget=0;fontStyle=5;" vertex="1" parent="ubanir7nK9sAYECxIfNs-78">
          <mxGeometry y="26" width="250" height="30" as="geometry" />
        </mxCell>
        <mxCell id="ubanir7nK9sAYECxIfNs-80" value="&lt;font color=&quot;#ff0000&quot;&gt;PK&lt;/font&gt;" style="shape=partialRectangle;top=0;left=0;bottom=0;html=1;fillColor=none;align=left;verticalAlign=middle;spacingLeft=4;spacingRight=4;whiteSpace=wrap;overflow=hidden;rotatable=0;points=[];portConstraint=eastwest;part=1;" vertex="1" connectable="0" parent="ubanir7nK9sAYECxIfNs-79">
          <mxGeometry width="30" height="30" as="geometry" />
        </mxCell>
        <mxCell id="ubanir7nK9sAYECxIfNs-81" value="nom_team &lt;font color=&quot;#ff0000&quot;&gt;varchar(200)&lt;/font&gt;" style="shape=partialRectangle;top=0;left=0;right=0;bottom=0;html=1;align=left;verticalAlign=top;fillColor=none;spacingLeft=34;spacingRight=4;whiteSpace=wrap;overflow=hidden;rotatable=0;points=[[0,0.5],[1,0.5]];portConstraint=eastwest;dropTarget=0;" vertex="1" parent="ubanir7nK9sAYECxIfNs-78">
          <mxGeometry y="56" width="250" height="26" as="geometry" />
        </mxCell>
        <mxCell id="ubanir7nK9sAYECxIfNs-82" value="" style="shape=partialRectangle;top=0;left=0;bottom=0;html=1;fillColor=none;align=left;verticalAlign=top;spacingLeft=4;spacingRight=4;whiteSpace=wrap;overflow=hidden;rotatable=0;points=[];portConstraint=eastwest;part=1;" vertex="1" connectable="0" parent="ubanir7nK9sAYECxIfNs-81">
          <mxGeometry width="30" height="26" as="geometry" />
        </mxCell>
        <mxCell id="ubanir7nK9sAYECxIfNs-83" value="prenom_team&amp;nbsp;&lt;font color=&quot;#ff0000&quot;&gt;varchar(200)&lt;/font&gt;" style="shape=partialRectangle;top=0;left=0;right=0;bottom=0;html=1;align=left;verticalAlign=top;fillColor=none;spacingLeft=34;spacingRight=4;whiteSpace=wrap;overflow=hidden;rotatable=0;points=[[0,0.5],[1,0.5]];portConstraint=eastwest;dropTarget=0;" vertex="1" parent="ubanir7nK9sAYECxIfNs-78">
          <mxGeometry y="82" width="250" height="26" as="geometry" />
        </mxCell>
        <mxCell id="ubanir7nK9sAYECxIfNs-84" value="" style="shape=partialRectangle;top=0;left=0;bottom=0;html=1;fillColor=none;align=left;verticalAlign=top;spacingLeft=4;spacingRight=4;whiteSpace=wrap;overflow=hidden;rotatable=0;points=[];portConstraint=eastwest;part=1;" vertex="1" connectable="0" parent="ubanir7nK9sAYECxIfNs-83">
          <mxGeometry width="30" height="26" as="geometry" />
        </mxCell>
        <mxCell id="ubanir7nK9sAYECxIfNs-85" value="fonction_team&amp;nbsp;&lt;font color=&quot;#ff0000&quot;&gt;varchar(200)&lt;/font&gt;" style="shape=partialRectangle;top=0;left=0;right=0;bottom=0;html=1;align=left;verticalAlign=top;fillColor=none;spacingLeft=34;spacingRight=4;whiteSpace=wrap;overflow=hidden;rotatable=0;points=[[0,0.5],[1,0.5]];portConstraint=eastwest;dropTarget=0;" vertex="1" parent="ubanir7nK9sAYECxIfNs-78">
          <mxGeometry y="108" width="250" height="26" as="geometry" />
        </mxCell>
        <mxCell id="ubanir7nK9sAYECxIfNs-86" value="" style="shape=partialRectangle;top=0;left=0;bottom=0;html=1;fillColor=none;align=left;verticalAlign=top;spacingLeft=4;spacingRight=4;whiteSpace=wrap;overflow=hidden;rotatable=0;points=[];portConstraint=eastwest;part=1;" vertex="1" connectable="0" parent="ubanir7nK9sAYECxIfNs-85">
          <mxGeometry width="30" height="26" as="geometry" />
        </mxCell>
        <mxCell id="ubanir7nK9sAYECxIfNs-87" value="duree_emploi_team &lt;font color=&quot;#ff0000&quot;&gt;date&lt;/font&gt;" style="shape=partialRectangle;top=0;left=0;right=0;bottom=0;html=1;align=left;verticalAlign=top;fillColor=none;spacingLeft=34;spacingRight=4;whiteSpace=wrap;overflow=hidden;rotatable=0;points=[[0,0.5],[1,0.5]];portConstraint=eastwest;dropTarget=0;" vertex="1" parent="ubanir7nK9sAYECxIfNs-78">
          <mxGeometry y="134" width="250" height="26" as="geometry" />
        </mxCell>
        <mxCell id="ubanir7nK9sAYECxIfNs-88" value="" style="shape=partialRectangle;top=0;left=0;bottom=0;html=1;fillColor=none;align=left;verticalAlign=top;spacingLeft=4;spacingRight=4;whiteSpace=wrap;overflow=hidden;rotatable=0;points=[];portConstraint=eastwest;part=1;" vertex="1" connectable="0" parent="ubanir7nK9sAYECxIfNs-87">
          <mxGeometry width="30" height="26" as="geometry" />
        </mxCell>
        <mxCell id="ubanir7nK9sAYECxIfNs-89" value="" style="endArrow=none;html=1;rounded=0;entryX=0.5;entryY=1;entryDx=0;entryDy=0;exitX=0.488;exitY=-0.001;exitDx=0;exitDy=0;exitPerimeter=0;" edge="1" parent="1" source="ubanir7nK9sAYECxIfNs-10" target="ubanir7nK9sAYECxIfNs-38">
          <mxGeometry width="50" height="50" relative="1" as="geometry">
            <mxPoint x="660" y="590" as="sourcePoint" />
            <mxPoint x="850" y="513" as="targetPoint" />
          </mxGeometry>
        </mxCell>
        <mxCell id="ubanir7nK9sAYECxIfNs-90" value="" style="endArrow=none;html=1;rounded=0;exitX=0.992;exitY=1.14;exitDx=0;exitDy=0;entryX=0.498;entryY=0.988;entryDx=0;entryDy=0;entryPerimeter=0;exitPerimeter=0;" edge="1" parent="1" target="ubanir7nK9sAYECxIfNs-36">
          <mxGeometry width="50" height="50" relative="1" as="geometry">
            <mxPoint x="859.76" y="361.19999999999993" as="sourcePoint" />
            <mxPoint x="860" y="230" as="targetPoint" />
          </mxGeometry>
        </mxCell>
        <mxCell id="ubanir7nK9sAYECxIfNs-95" value="" style="endArrow=none;html=1;rounded=0;exitX=0.999;exitY=0.005;exitDx=0;exitDy=0;exitPerimeter=0;entryX=-0.005;entryY=0.333;entryDx=0;entryDy=0;entryPerimeter=0;" edge="1" parent="1" source="ubanir7nK9sAYECxIfNs-8" target="ubanir7nK9sAYECxIfNs-41">
          <mxGeometry width="50" height="50" relative="1" as="geometry">
            <mxPoint x="620" y="439" as="sourcePoint" />
            <mxPoint x="655" y="440" as="targetPoint" />
          </mxGeometry>
        </mxCell>
        <mxCell id="ubanir7nK9sAYECxIfNs-97" value="" style="endArrow=none;html=1;rounded=0;exitX=0.998;exitY=0.04;exitDx=0;exitDy=0;exitPerimeter=0;entryX=-0.002;entryY=0.022;entryDx=0;entryDy=0;entryPerimeter=0;" edge="1" parent="1" source="ubanir7nK9sAYECxIfNs-48" target="ubanir7nK9sAYECxIfNs-6">
          <mxGeometry width="50" height="50" relative="1" as="geometry">
            <mxPoint x="290" y="440" as="sourcePoint" />
            <mxPoint x="330" y="440" as="targetPoint" />
          </mxGeometry>
        </mxCell>
        <mxCell id="ubanir7nK9sAYECxIfNs-100" value="" style="endArrow=none;html=1;rounded=0;entryX=0;entryY=0.645;entryDx=0;entryDy=0;entryPerimeter=0;" edge="1" parent="1" target="ubanir7nK9sAYECxIfNs-72">
          <mxGeometry width="50" height="50" relative="1" as="geometry">
            <mxPoint x="280" y="951" as="sourcePoint" />
            <mxPoint x="280" y="949" as="targetPoint" />
          </mxGeometry>
        </mxCell>
      </root>
    </mxGraphModel>
  </diagram>
</mxfile>
